<?xml version="1.0" encoding="UTF-8"?>
<svg width="22px" height="22px" viewBox="0 0 22 22" version="1.1" xmlns="http://www.w3.org/2000/svg" xmlns:xlink="http://www.w3.org/1999/xlink">
    <!-- Generator: Sketch 50.2 (55047) - http://www.bohemiancoding.com/sketch -->
    <title>icon-social-medium</title>
    <desc>Created with Sketch.</desc>
    <defs></defs>
    <g id="Symbols" stroke="none" stroke-width="1" fill="none" fill-rule="evenodd">
        <g id="Nav-/-Home" transform="translate(-885.000000, -16.000000)">
            <g id="icon-social-medium" transform="translate(886.000000, 17.000000)">
                <circle id="Oval-2-Copy-2" stroke="#FFFFFF" stroke-width="1.5" cx="10" cy="10" r="10"></circle>
                <path d="M6.18580766,7.63198118 C6.19823189,7.50828132 6.15141985,7.38601777 6.05975724,7.30276308 L5.12605042,6.16931217 L5.12605042,6 L8.02521008,6 L10.2661064,10.9523809 L12.2362279,6 L15,6 L15,6.16931217 L14.2016807,6.94062316 C14.1328568,6.99348828 14.0987166,7.08037586 14.1129785,7.16637272 L14.1129785,12.8336273 C14.0987166,12.9196242 14.1328568,13.0065117 14.2016807,13.0593768 L14.9813259,13.8306878 L14.9813259,14 L11.0597573,14 L11.0597573,13.8306878 L11.8674137,13.0405644 C11.9467787,12.9606114 11.9467787,12.9370958 11.9467787,12.8148148 L11.9467787,8.23398002 L9.70121382,13.9811875 L9.39775911,13.9811875 L6.78338002,8.23398002 L6.78338002,12.0858318 C6.76158227,12.2477745 6.81495572,12.4108154 6.92810457,12.5279248 L7.97852474,13.8118754 L7.97852474,13.9811875 L5,13.9811875 L5,13.8118754 L6.05042017,12.5279248 C6.1627452,12.4106212 6.2130064,12.2464988 6.18580766,12.0858318 L6.18580766,7.63198118 Z" id="Shape" fill="#FFFFFF" fill-rule="nonzero"></path>
            </g>
        </g>
    </g>
</svg>