<?xml version="1.0" encoding="UTF-8"?>
<svg width="20px" height="20px" viewBox="0 0 20 20" version="1.1" xmlns="http://www.w3.org/2000/svg" xmlns:xlink="http://www.w3.org/1999/xlink">
    <!-- Generator: Sketch 50.2 (55047) - http://www.bohemiancoding.com/sketch -->
    <title>icon-social-dribbble</title>
    <desc>Created with Sketch.</desc>
    <defs></defs>
    <g id="Symbols" stroke="none" stroke-width="1" fill="none" fill-rule="evenodd">
        <g id="Nav-/-Home" transform="translate(-950.000000, -17.000000)" fill="#FFFFFF" fill-rule="nonzero">
            <path d="M960,37 C954.484375,37 950,32.5181854 950,27.0039108 C950,21.4818146 954.484375,17 960,17 C965.515625,17 970,21.4818146 970,26.9960892 C970,32.5103637 965.515625,37 960,37 Z M968.429688,28.3648807 C968.140625,28.2710207 965.789062,27.5748925 963.109375,27.9972624 C964.226562,31.0633555 964.679688,33.5662886 964.765625,34.0825186 C966.6875,32.7919437 968.054688,30.7426672 968.429688,28.3648807 Z M963.335938,34.8725068 C963.210938,34.1216269 962.710938,31.5091905 961.515625,28.3961674 C961.5,28.403989 961.476562,28.4118107 961.460938,28.4118107 C956.640625,30.0934689 954.914062,33.4333203 954.757812,33.7461869 C956.203125,34.8725068 958.023438,35.5451701 960,35.5451701 C961.179688,35.5529918 962.3125,35.3105201 963.335938,34.8725068 Z M953.65625,32.7215487 C953.851562,32.3930387 956.195312,28.5134924 960.601562,27.0821275 C960.710938,27.0430192 960.828125,27.0117325 960.9375,26.9804458 C960.726562,26.4955025 960.492188,26.0105592 960.242188,25.5334376 C955.976562,26.8083692 951.835938,26.7536175 951.460938,26.7457959 C951.460938,26.8318342 951.453125,26.9178725 951.453125,27.0039108 C951.460938,29.201799 952.289062,31.2041455 953.65625,32.7215487 Z M951.640625,25.2596793 C952.023438,25.267501 955.539062,25.2831443 959.539062,24.2193977 C958.125,21.7008213 956.59375,19.5889715 956.375,19.2839265 C953.976562,20.4102464 952.195312,22.6159562 951.640625,25.2596793 Z M958,18.7051232 C958.234375,19.0179898 959.789062,21.1298397 961.1875,23.7031678 C964.226562,22.5612045 965.507812,20.840438 965.664062,20.6214314 C964.15625,19.2839265 962.171875,18.4704732 960,18.4704732 C959.3125,18.4704732 958.640625,18.5565115 958,18.7051232 Z M966.609375,21.6069613 C966.429688,21.8494329 965,23.6875244 961.84375,24.9780993 C962.039062,25.384826 962.234375,25.7993743 962.414062,26.2139226 C962.476562,26.3625342 962.539062,26.5111459 962.601562,26.6519359 C965.445312,26.2921392 968.265625,26.8709425 968.546875,26.9256942 C968.523438,24.915526 967.804688,23.0617912 966.609375,21.6069613 Z" id="icon-social-dribbble"></path>
        </g>
    </g>
</svg>