<?xml version="1.0" encoding="UTF-8"?>
<svg width="20px" height="20px" viewBox="0 0 20 20" version="1.1" xmlns="http://www.w3.org/2000/svg" xmlns:xlink="http://www.w3.org/1999/xlink">
    <!-- Generator: Sketch 50.2 (55047) - http://www.bohemiancoding.com/sketch -->
    <title>icon-social-dribbble-dark</title>
    <desc>Created with Sketch.</desc>
    <defs></defs>
    <g id="Symbols" stroke="none" stroke-width="1" fill="none" fill-rule="evenodd">
        <g id="Nav-/-Home" transform="translate(-950.000000, -48.000000)" fill="#000000" fill-rule="nonzero">
            <path d="M960,68 C954.484375,68 950,63.5181854 950,58.0039108 C950,52.4818146 954.484375,48 960,48 C965.515625,48 970,52.4818146 970,57.9960892 C970,63.5103637 965.515625,68 960,68 Z M968.429688,59.3648807 C968.140625,59.2710207 965.789062,58.5748925 963.109375,58.9972624 C964.226562,62.0633555 964.679688,64.5662886 964.765625,65.0825186 C966.6875,63.7919437 968.054688,61.7426672 968.429688,59.3648807 Z M963.335938,65.8725068 C963.210938,65.1216269 962.710938,62.5091905 961.515625,59.3961674 C961.5,59.403989 961.476562,59.4118107 961.460938,59.4118107 C956.640625,61.0934689 954.914062,64.4333203 954.757812,64.7461869 C956.203125,65.8725068 958.023438,66.5451701 960,66.5451701 C961.179688,66.5529918 962.3125,66.3105201 963.335938,65.8725068 Z M953.65625,63.7215487 C953.851562,63.3930387 956.195312,59.5134924 960.601562,58.0821275 C960.710938,58.0430192 960.828125,58.0117325 960.9375,57.9804458 C960.726562,57.4955025 960.492188,57.0105592 960.242188,56.5334376 C955.976562,57.8083692 951.835938,57.7536175 951.460938,57.7457959 C951.460938,57.8318342 951.453125,57.9178725 951.453125,58.0039108 C951.460938,60.201799 952.289062,62.2041455 953.65625,63.7215487 Z M951.640625,56.2596793 C952.023438,56.267501 955.539062,56.2831443 959.539062,55.2193977 C958.125,52.7008213 956.59375,50.5889715 956.375,50.2839265 C953.976562,51.4102464 952.195312,53.6159562 951.640625,56.2596793 Z M958,49.7051232 C958.234375,50.0179898 959.789062,52.1298397 961.1875,54.7031678 C964.226562,53.5612045 965.507812,51.840438 965.664062,51.6214314 C964.15625,50.2839265 962.171875,49.4704732 960,49.4704732 C959.3125,49.4704732 958.640625,49.5565115 958,49.7051232 Z M966.609375,52.6069613 C966.429688,52.8494329 965,54.6875244 961.84375,55.9780993 C962.039062,56.384826 962.234375,56.7993743 962.414062,57.2139226 C962.476562,57.3625342 962.539062,57.5111459 962.601562,57.6519359 C965.445312,57.2921392 968.265625,57.8709425 968.546875,57.9256942 C968.523438,55.915526 967.804688,54.0617912 966.609375,52.6069613 Z" id="icon-social-dribbble-dark"></path>
        </g>
    </g>
</svg>