<?xml version="1.0" encoding="UTF-8"?>
<svg width="64px" height="64px" viewBox="0 0 64 64" version="1.1" xmlns="http://www.w3.org/2000/svg" xmlns:xlink="http://www.w3.org/1999/xlink">
    <!-- Generator: Sketch 48.2 (47327) - http://www.bohemiancoding.com/sketch -->
    <title>Combined Shape</title>
    <desc>Created with Sketch.</desc>
    <defs></defs>
    <g id="Artboard" stroke="none" stroke-width="1" fill="none" fill-rule="evenodd" transform="translate(-102.000000, -239.000000)">
        <path d="M134,303 C116.326888,303 102,288.673112 102,271 C102,253.326888 116.326888,239 134,239 C151.673112,239 166,253.326888 166,271 C166,288.673112 151.673112,303 134,303 Z M145.422291,272.788854 C145.809346,272.595327 146.123191,272.281482 146.316718,271.894427 C146.810697,270.90647 146.410248,269.705124 145.422291,269.211146 L127.894427,260.447214 C127.616716,260.308358 127.31049,260.236068 127,260.236068 C125.895431,260.236068 125,261.131498 125,262.236068 L125,279.763932 C125,280.074422 125.07229,280.380648 125.211146,280.658359 C125.705124,281.646316 126.90647,282.046765 127.894427,281.552786 L145.422291,272.788854 Z" id="Combined-Shape" fill="#FFFFFF"></path>
    </g>
</svg>