<?xml version="1.0" encoding="UTF-8"?>
<svg width="70px" height="70px" viewBox="0 0 70 70" version="1.1" xmlns="http://www.w3.org/2000/svg" xmlns:xlink="http://www.w3.org/1999/xlink">
    <!-- Generator: Sketch 50.2 (55047) - http://www.bohemiancoding.com/sketch -->
    <title>logo</title>
    <desc>Created with Sketch.</desc>
    <defs></defs>
    <g id="Symbols" stroke="none" stroke-width="1" fill="none" fill-rule="evenodd">
        <g id="Nav-/-Home" fill="#FFFFFF">
            <path d="M0,35 C0,15.6700338 15.6657836,0 35,0 C54.3299662,0 70,15.6657836 70,35 C70,54.3299662 54.3342164,70 35,70 C15.6700338,70 0,54.3342164 0,35 Z M25.9670796,21.1573053 L24.2837265,21.1573053 L24.2837265,18.9479043 L25.9539284,18.9479043 C26.3835363,18.9479043 26.7210803,19.0377699 26.9665705,19.2175038 C27.2120607,19.3972377 27.334804,19.6712183 27.334804,20.0394536 L27.334804,20.065756 C27.334804,20.3989213 27.2164444,20.6641344 26.9797217,20.8614034 C26.742999,21.0586723 26.405455,21.1573053 25.9670796,21.1573053 Z M21.7323944,16.7385033 L21.7323944,25.9443407 L24.2837265,25.9443407 L24.2837265,23.1562871 L25.4015781,23.1562871 L27.2558968,25.9443407 L30.2017648,25.9443407 L28.005515,22.7354488 C28.5841705,22.4899586 29.0444578,22.1348799 29.3863906,21.6702019 C29.7283234,21.205524 29.8992873,20.6181098 29.8992873,19.9079416 L29.8992873,19.8816392 C29.8992873,18.9785859 29.6274986,18.2640447 29.0839131,17.7379942 C28.7770503,17.4223639 28.3781347,17.1768774 27.8871543,17.0015272 C27.3961738,16.8261771 26.7956085,16.7385033 26.0854404,16.7385033 L21.7323944,16.7385033 Z M35.843628,23.8269981 C35.4929277,23.8269981 35.1729185,23.759051 34.8835907,23.6231546 C34.5942629,23.4872582 34.3465845,23.3053352 34.1405481,23.0773799 C33.9345117,22.8494247 33.774507,22.5864034 33.6605294,22.2883082 C33.5465518,21.9902129 33.4895639,21.6745873 33.4895639,21.341422 L33.4895639,21.3151196 C33.4895639,20.9819543 33.54436,20.6663288 33.6539538,20.3682335 C33.7635477,20.0701382 33.9213605,19.8093088 34.1273969,19.5857373 C34.3334334,19.3621659 34.5789199,19.1846265 34.8638639,19.0531139 C35.1488079,18.9216012 35.4666253,18.8558459 35.8173256,18.8558459 C36.168026,18.8558459 36.4880352,18.9237931 36.777363,19.0596895 C37.0666907,19.1955858 37.316561,19.3775089 37.5269812,19.6054641 C37.7374014,19.8334193 37.8995978,20.0964406 38.0135754,20.3945359 C38.127553,20.6926312 38.184541,21.0082567 38.184541,21.341422 L38.184541,21.3677244 C38.184541,21.7008897 38.127553,22.0165153 38.0135754,22.3146106 C37.8995978,22.6127058 37.741785,22.8735353 37.5401324,23.0971067 C37.3384797,23.3206782 37.0929931,23.4982176 36.8036654,23.6297302 C36.5143376,23.7612428 36.1943284,23.8269981 35.843628,23.8269981 Z M35.8173256,26.1284575 C36.5274938,26.1284575 37.185047,26.0035224 37.7900051,25.7536484 C38.3949631,25.5037744 38.9210057,25.1618467 39.3681487,24.7278551 C39.8152916,24.2938634 40.1637948,23.7853556 40.4136688,23.2023163 C40.6635427,22.619277 40.7884779,21.9989851 40.7884779,21.341422 L40.7884779,21.3151196 C40.7884779,20.6575565 40.6635427,20.0394565 40.4136688,19.460801 C40.1637948,18.8821454 39.8196753,18.3780213 39.3812998,17.9484134 C38.9429244,17.5188055 38.4212655,17.1790696 37.8163075,16.9291957 C37.2113494,16.6793217 36.5537962,16.5543866 35.843628,16.5543866 C35.1334599,16.5543866 34.4759066,16.6793217 33.8709486,16.9291957 C33.2659905,17.1790696 32.7399479,17.5209973 32.292805,17.954989 C31.8456621,18.3889806 31.4971589,18.8974885 31.2472849,19.4805277 C30.9974109,20.063567 30.8724758,20.6838589 30.8724758,21.341422 L30.8724758,21.3677244 C30.8724758,22.0252875 30.9974109,22.6433876 31.2472849,23.2220431 C31.4971589,23.8006986 31.8412784,24.3048228 32.2796538,24.7344307 C32.7180292,25.1640386 33.2396881,25.5037744 33.8446462,25.7536484 C34.4496042,26.0035224 35.1071575,26.1284575 35.8173256,26.1284575 Z M21.7323944,29.8896996 L21.7323944,39.0955371 L24.2311217,39.0955371 L24.2311217,33.8350585 L26.5720346,37.4121839 L26.6246394,37.4121839 L28.9787035,33.8087562 L28.9787035,39.0955371 L31.5168844,39.0955371 L31.5168844,29.8896996 L28.8208892,29.8896996 L26.6246394,33.4536739 L24.4283896,29.8896996 L21.7323944,29.8896996 Z M38.5659257,35.4658069 L36.5011878,35.4658069 L37.5401324,32.8487188 L38.5659257,35.4658069 Z M36.3302223,29.8239437 L32.4111658,39.0955371 L35.0940098,39.0955371 L35.7515697,37.4516375 L39.3023927,37.4516375 L39.9731037,39.0955371 L42.7085525,39.0955371 L38.789496,29.8239437 L36.3302223,29.8239437 Z M43.6028339,29.8896996 L43.6028339,39.0955371 L46.1278636,39.0955371 L46.1278636,34.0454777 L50.0600713,39.0955371 L52.2957746,39.0955371 L52.2957746,29.8896996 L49.770745,29.8896996 L49.770745,34.7556423 L45.9832004,29.8896996 L43.6028339,29.8896996 Z M25.4936365,47.6175123 L24.2837265,47.6175123 L24.2837265,45.184541 L25.4804853,45.184541 C25.9451632,45.184541 26.3068175,45.2875577 26.565459,45.4935941 C26.8241005,45.6996305 26.9534193,45.9999132 26.9534193,46.394451 L26.9534193,46.4207534 C26.9534193,46.7889888 26.8241005,47.080504 26.565459,47.295308 C26.3068175,47.5101119 25.9495469,47.6175123 25.4936365,47.6175123 Z M21.7323944,43.040896 L21.7323944,52.2467334 L24.2837265,52.2467334 L24.2837265,49.6164941 L25.5462413,49.6164941 C26.1161293,49.6164941 26.6443638,49.5463551 27.1309605,49.406075 C27.6175572,49.2657949 28.0361994,49.0553778 28.3868997,48.7748176 C28.7376,48.4942573 29.0115806,48.1479459 29.2088495,47.7358731 C29.4061184,47.3238002 29.5047514,46.8459782 29.5047514,46.3023927 L29.5047514,46.2760903 C29.5047514,45.7675748 29.4148858,45.3116712 29.2351519,44.9083659 C29.055418,44.5050605 28.7989722,44.1653246 28.4658069,43.8891481 C28.1326416,43.6129716 27.7293423,43.4025546 27.2558968,43.2578907 C26.7824514,43.1132268 26.2564088,43.040896 25.6777533,43.040896 L21.7323944,43.040896 Z" id="logo"></path>
        </g>
    </g>
</svg>