<?xml version="1.0" encoding="UTF-8"?>
<svg width="70px" height="70px" viewBox="0 0 70 70" version="1.1" xmlns="http://www.w3.org/2000/svg" xmlns:xlink="http://www.w3.org/1999/xlink">
    <!-- Generator: Sketch 50.2 (55047) - http://www.bohemiancoding.com/sketch -->
    <title>logo-dark</title>
    <desc>Created with Sketch.</desc>
    <defs></defs>
    <g id="Symbols" stroke="none" stroke-width="1" fill="none" fill-rule="evenodd">
        <g id="Nav-/-Home" transform="translate(-113.000000, 0.000000)" fill="#0D0D0D">
            <path d="M113,35 C113,15.6700338 128.665784,0 148,0 C167.329966,0 183,15.6657836 183,35 C183,54.3299662 167.334216,70 148,70 C128.670034,70 113,54.3342164 113,35 Z M138.96708,21.1573053 L137.283726,21.1573053 L137.283726,18.9479043 L138.953928,18.9479043 C139.383536,18.9479043 139.72108,19.0377699 139.966571,19.2175038 C140.212061,19.3972377 140.334804,19.6712183 140.334804,20.0394536 L140.334804,20.065756 C140.334804,20.3989213 140.216444,20.6641344 139.979722,20.8614034 C139.742999,21.0586723 139.405455,21.1573053 138.96708,21.1573053 Z M134.732394,16.7385033 L134.732394,25.9443407 L137.283726,25.9443407 L137.283726,23.1562871 L138.401578,23.1562871 L140.255897,25.9443407 L143.201765,25.9443407 L141.005515,22.7354488 C141.584171,22.4899586 142.044458,22.1348799 142.386391,21.6702019 C142.728323,21.205524 142.899287,20.6181098 142.899287,19.9079416 L142.899287,19.8816392 C142.899287,18.9785859 142.627499,18.2640447 142.083913,17.7379942 C141.77705,17.4223639 141.378135,17.1768774 140.887154,17.0015272 C140.396174,16.8261771 139.795609,16.7385033 139.08544,16.7385033 L134.732394,16.7385033 Z M148.843628,23.8269981 C148.492928,23.8269981 148.172918,23.759051 147.883591,23.6231546 C147.594263,23.4872582 147.346585,23.3053352 147.140548,23.0773799 C146.934512,22.8494247 146.774507,22.5864034 146.660529,22.2883082 C146.546552,21.9902129 146.489564,21.6745873 146.489564,21.341422 L146.489564,21.3151196 C146.489564,20.9819543 146.54436,20.6663288 146.653954,20.3682335 C146.763548,20.0701382 146.92136,19.8093088 147.127397,19.5857373 C147.333433,19.3621659 147.57892,19.1846265 147.863864,19.0531139 C148.148808,18.9216012 148.466625,18.8558459 148.817326,18.8558459 C149.168026,18.8558459 149.488035,18.9237931 149.777363,19.0596895 C150.066691,19.1955858 150.316561,19.3775089 150.526981,19.6054641 C150.737401,19.8334193 150.899598,20.0964406 151.013575,20.3945359 C151.127553,20.6926312 151.184541,21.0082567 151.184541,21.341422 L151.184541,21.3677244 C151.184541,21.7008897 151.127553,22.0165153 151.013575,22.3146106 C150.899598,22.6127058 150.741785,22.8735353 150.540132,23.0971067 C150.33848,23.3206782 150.092993,23.4982176 149.803665,23.6297302 C149.514338,23.7612428 149.194328,23.8269981 148.843628,23.8269981 Z M148.817326,26.1284575 C149.527494,26.1284575 150.185047,26.0035224 150.790005,25.7536484 C151.394963,25.5037744 151.921006,25.1618467 152.368149,24.7278551 C152.815292,24.2938634 153.163795,23.7853556 153.413669,23.2023163 C153.663543,22.619277 153.788478,21.9989851 153.788478,21.341422 L153.788478,21.3151196 C153.788478,20.6575565 153.663543,20.0394565 153.413669,19.460801 C153.163795,18.8821454 152.819675,18.3780213 152.3813,17.9484134 C151.942924,17.5188055 151.421266,17.1790696 150.816307,16.9291957 C150.211349,16.6793217 149.553796,16.5543866 148.843628,16.5543866 C148.13346,16.5543866 147.475907,16.6793217 146.870949,16.9291957 C146.265991,17.1790696 145.739948,17.5209973 145.292805,17.954989 C144.845662,18.3889806 144.497159,18.8974885 144.247285,19.4805277 C143.997411,20.063567 143.872476,20.6838589 143.872476,21.341422 L143.872476,21.3677244 C143.872476,22.0252875 143.997411,22.6433876 144.247285,23.2220431 C144.497159,23.8006986 144.841278,24.3048228 145.279654,24.7344307 C145.718029,25.1640386 146.239688,25.5037744 146.844646,25.7536484 C147.449604,26.0035224 148.107157,26.1284575 148.817326,26.1284575 Z M134.732394,29.8896996 L134.732394,39.0955371 L137.231122,39.0955371 L137.231122,33.8350585 L139.572035,37.4121839 L139.624639,37.4121839 L141.978704,33.8087562 L141.978704,39.0955371 L144.516884,39.0955371 L144.516884,29.8896996 L141.820889,29.8896996 L139.624639,33.4536739 L137.42839,29.8896996 L134.732394,29.8896996 Z M151.565926,35.4658069 L149.501188,35.4658069 L150.540132,32.8487188 L151.565926,35.4658069 Z M149.330222,29.8239437 L145.411166,39.0955371 L148.09401,39.0955371 L148.75157,37.4516375 L152.302393,37.4516375 L152.973104,39.0955371 L155.708553,39.0955371 L151.789496,29.8239437 L149.330222,29.8239437 Z M156.602834,29.8896996 L156.602834,39.0955371 L159.127864,39.0955371 L159.127864,34.0454777 L163.060071,39.0955371 L165.295775,39.0955371 L165.295775,29.8896996 L162.770745,29.8896996 L162.770745,34.7556423 L158.9832,29.8896996 L156.602834,29.8896996 Z M138.493637,47.6175123 L137.283726,47.6175123 L137.283726,45.184541 L138.480485,45.184541 C138.945163,45.184541 139.306818,45.2875577 139.565459,45.4935941 C139.824101,45.6996305 139.953419,45.9999132 139.953419,46.394451 L139.953419,46.4207534 C139.953419,46.7889888 139.824101,47.080504 139.565459,47.295308 C139.306818,47.5101119 138.949547,47.6175123 138.493637,47.6175123 Z M134.732394,43.040896 L134.732394,52.2467334 L137.283726,52.2467334 L137.283726,49.6164941 L138.546241,49.6164941 C139.116129,49.6164941 139.644364,49.5463551 140.13096,49.406075 C140.617557,49.2657949 141.036199,49.0553778 141.3869,48.7748176 C141.7376,48.4942573 142.011581,48.1479459 142.208849,47.7358731 C142.406118,47.3238002 142.504751,46.8459782 142.504751,46.3023927 L142.504751,46.2760903 C142.504751,45.7675748 142.414886,45.3116712 142.235152,44.9083659 C142.055418,44.5050605 141.798972,44.1653246 141.465807,43.8891481 C141.132642,43.6129716 140.729342,43.4025546 140.255897,43.2578907 C139.782451,43.1132268 139.256409,43.040896 138.677753,43.040896 L134.732394,43.040896 Z" id="logo-dark"></path>
        </g>
    </g>
</svg>